STARTFONT 2.3
FONT -FontForge-Permanent Marker-Book-R-Normal--18-180-72-72-P-104-ISO10646-1
SIZE 18 72 72  2
FONTBOUNDINGBOX 28 26 -5 -6
COMMENT "Generated by fontforge, http://fontforge.sourceforge.net"
COMMENT "Copyright (c) 2010 by Font Diner, Inc. All rights reserved."
STARTPROPERTIES 40
FOUNDRY "FontForge"
FAMILY_NAME "Permanent Marker"
WEIGHT_NAME "Book"
SLANT "R"
SETWIDTH_NAME "Normal"
ADD_STYLE_NAME ""
PIXEL_SIZE 18
POINT_SIZE 180
RESOLUTION_X 72
RESOLUTION_Y 72
SPACING "P"
AVERAGE_WIDTH 104
CHARSET_REGISTRY "ISO10646"
CHARSET_ENCODING "1"
FONTNAME_REGISTRY ""
CHARSET_COLLECTIONS "ISO10646-1"
BITS_PER_PIXEL 2
FONT_NAME "PermanentMarker-Regular"
FACE_NAME "Permanent Marker Regular"
COPYRIGHT "Copyright (c) 2010 by Font Diner, Inc. All rights reserved."
FONT_VERSION "1.001"
FONT_ASCENT 14
FONT_DESCENT 4
UNDERLINE_POSITION -2
UNDERLINE_THICKNESS 1
X_HEIGHT 10
CAP_HEIGHT 12
RAW_ASCENT 799
RAW_DESCENT 200
NORM_SPACE 7
RELATIVE_WEIGHT 40
RELATIVE_SETWIDTH 50
SUPERSCRIPT_X 0
SUPERSCRIPT_Y 8
SUPERSCRIPT_SIZE 11
SUBSCRIPT_X 0
SUBSCRIPT_Y 2
SUBSCRIPT_SIZE 11
AVG_LOWERCASE_WIDTH 101
AVG_UPPERCASE_WIDTH 122
ENDPROPERTIES
CHARS 230
STARTCHAR space
ENCODING 32
SWIDTH 370 0
DWIDTH 7 0
BBX 1 1 0 0
BITMAP
00
ENDCHAR
STARTCHAR exclam
ENCODING 33
SWIDTH 260 0
DWIDTH 5 0
BBX 5 15 0 -1
BITMAP
0100
0740
0B80
0F80
0F80
1F40
1F40
2F00
2E00
1D00
0000
6400
FC00
BC00
1000
ENDCHAR
STARTCHAR quotedbl
ENCODING 34
SWIDTH 492 0
DWIDTH 9 0
BBX 9 10 1 4
BITMAP
040400
1F0F40
2F5F40
3F2F00
3E3E00
7D7D00
7DBD00
BCBC00
387800
001000
ENDCHAR
STARTCHAR numbersign
ENCODING 35
SWIDTH 703 0
DWIDTH 13 0
BBX 13 13 0 0
BITMAP
00241800
007C3C00
00BC7D00
05FEBD00
2FFFFF80
1FFAF940
02E2F000
17EBF800
7FFFFE00
7FEFD400
1F4F8000
2F1F4000
1E1E0000
ENDCHAR
STARTCHAR dollar
ENCODING 36
SWIDTH 493 0
DWIDTH 9 0
BBX 10 14 0 -1
BITMAP
001800
002D00
007F80
0BFFE0
7FE690
7FD000
2FF800
002C00
007D00
16F800
2FE000
1FC000
0B8000
010000
ENDCHAR
STARTCHAR percent
ENCODING 37
SWIDTH 643 0
DWIDTH 12 0
BBX 12 13 0 0
BITMAP
018005
07D01E
1FE07D
3DF1F8
3FF7E0
1A9F80
007E00
01F890
07D7E0
1F4FF4
3E2EB8
7D2FF4
380A40
ENDCHAR
STARTCHAR ampersand
ENCODING 38
SWIDTH 599 0
DWIDTH 11 0
BBX 11 10 0 0
BITMAP
001800
003E00
2E7E00
7FFE40
FBFFF4
7FFFE4
06F800
01F400
01F000
004000
ENDCHAR
STARTCHAR quotesingle
ENCODING 39
SWIDTH 265 0
DWIDTH 5 0
BBX 5 9 1 5
BITMAP
0400
1F00
2F40
3F00
3E00
7D00
7D00
BC00
3800
ENDCHAR
STARTCHAR parenleft
ENCODING 40
SWIDTH 361 0
DWIDTH 7 0
BBX 9 18 0 -3
BITMAP
000740
001F40
00BF40
01FD00
07F400
0FD000
1FC000
2F4000
2F0000
3E0000
7D0000
7D0000
7D0000
7E0000
7E0000
3F0000
1E0000
0B0000
ENDCHAR
STARTCHAR parenright
ENCODING 41
SWIDTH 361 0
DWIDTH 7 0
BBX 8 18 -2 -3
BITMAP
00A0
00B8
00BD
007E
007E
003E
003E
003E
007D
00BC
00FC
02F8
03F4
0BE0
7F80
FF00
F800
E000
ENDCHAR
STARTCHAR asterisk
ENCODING 42
SWIDTH 673 0
DWIDTH 12 0
BBX 12 9 1 4
BITMAP
02C1D0
07EBC0
02FF40
6BFFF8
BFFFFD
2BFF40
03EF80
0BD780
064140
ENDCHAR
STARTCHAR plus
ENCODING 43
SWIDTH 579 0
DWIDTH 10 0
BBX 10 10 0 0
BITMAP
001000
00B400
00F800
01F800
6FFF80
BFFFD0
2BF500
03E000
07D000
028000
ENDCHAR
STARTCHAR comma
ENCODING 44
SWIDTH 204 0
DWIDTH 4 0
BBX 4 6 -2 -3
BITMAP
04
2F
2F
3F
BD
78
ENDCHAR
STARTCHAR hyphen
ENCODING 45
SWIDTH 609 0
DWIDTH 11 0
BBX 10 3 0 3
BITMAP
6FFF80
7FFFE0
295500
ENDCHAR
STARTCHAR period
ENCODING 46
SWIDTH 228 0
DWIDTH 4 0
BBX 4 4 -1 -1
BITMAP
29
7E
7D
14
ENDCHAR
STARTCHAR slash
ENCODING 47
SWIDTH 401 0
DWIDTH 7 0
BBX 10 13 -1 0
BITMAP
000090
0002E0
0007D0
000F80
002F00
00BD00
01F400
07E000
1F8000
3E0000
7C0000
BC0000
780000
ENDCHAR
STARTCHAR zero
ENCODING 48
SWIDTH 686 0
DWIDTH 12 0
BBX 12 15 0 -1
BITMAP
000240
000BD0
002FE0
00FFE0
02FFE0
0BFAF4
1FD0F8
3F80BC
7F007D
BD00BE
BD06FE
BFFFFD
7FFFF4
1FFF40
015000
ENDCHAR
STARTCHAR one
ENCODING 49
SWIDTH 322 0
DWIDTH 6 0
BBX 5 13 0 0
BITMAP
1D00
1F40
1F80
0F80
0FC0
0FC0
1F80
2F80
3F40
7F00
7E00
BD00
7C00
ENDCHAR
STARTCHAR two
ENCODING 50
SWIDTH 650 0
DWIDTH 12 0
BBX 12 13 1 0
BITMAP
6FF900
BFFF80
BFFFD0
295FE0
007FD0
01FF80
0BFD00
1FF000
7F8014
BF5AFD
FFFFFE
BFFFF9
6FA500
ENDCHAR
STARTCHAR three
ENCODING 51
SWIDTH 561 0
DWIDTH 10 0
BBX 10 13 0 0
BITMAP
06AF80
BFFFD0
FFFFF0
FFFFD0
5BFE40
0FFC00
0FFF00
06FF80
001FD0
116FD0
7FFFC0
BFFE00
6E9000
ENDCHAR
STARTCHAR four
ENCODING 52
SWIDTH 582 0
DWIDTH 10 0
BBX 10 15 1 -1
BITMAP
000400
002C00
902E00
F03E00
F43D00
F83E80
BFFFD0
BFFFC0
2FF900
01F400
02F000
02E000
02F000
01F400
005000
ENDCHAR
STARTCHAR five
ENCODING 53
SWIDTH 580 0
DWIDTH 10 0
BBX 11 13 1 0
BITMAP
028000
1FFAB4
7FFFF8
FFFFF8
FFE540
FF8000
7FF400
0BFC00
007D00
55BF00
FFFE00
BFFD00
2BA400
ENDCHAR
STARTCHAR six
ENCODING 54
SWIDTH 500 0
DWIDTH 9 0
BBX 9 14 0 -1
BITMAP
00B400
02FC00
07FC00
0FD000
1F8000
3F0000
7E2800
BDFF00
FBFF40
FBFF40
FFFF00
FFFC00
BF9000
040000
ENDCHAR
STARTCHAR seven
ENCODING 55
SWIDTH 576 0
DWIDTH 10 0
BBX 11 13 0 0
BITMAP
6FE400
BFFF00
BFFF80
556FC0
000BC0
000FD4
0AFFFC
2FFFFC
2FFE50
06FC00
02F400
03E000
02D000
ENDCHAR
STARTCHAR eight
ENCODING 56
SWIDTH 537 0
DWIDTH 10 0
BBX 10 13 1 0
BITMAP
1BE280
7FF7C0
BFFAD0
F8BFD0
BD6FC0
7FFF00
3FF800
3FE000
7EF000
B8F400
7EF400
3FF400
1FD000
ENDCHAR
STARTCHAR nine
ENCODING 57
SWIDTH 529 0
DWIDTH 10 0
BBX 10 13 0 0
BITMAP
00BD00
07FF40
1FFFC0
3F9BC0
7FFFE0
7FFFD0
2FEF80
000F00
001F00
002E00
002E00
003D00
003C00
ENDCHAR
STARTCHAR colon
ENCODING 58
SWIDTH 241 0
DWIDTH 4 0
BBX 5 9 -1 -1
BITMAP
0A00
1F40
1F40
0500
0000
2900
7E00
7D00
1400
ENDCHAR
STARTCHAR semicolon
ENCODING 59
SWIDTH 245 0
DWIDTH 4 0
BBX 6 11 -2 -3
BITMAP
0280
07E0
03D0
0140
0000
0500
0F80
1F80
2F40
7F00
2D00
ENDCHAR
STARTCHAR less
ENCODING 60
SWIDTH 625 0
DWIDTH 11 0
BBX 11 9 0 0
BITMAP
000064
0006FC
01BFF4
6FFF40
FFE400
7FF400
0BFF40
006FD0
000180
ENDCHAR
STARTCHAR equal
ENCODING 61
SWIDTH 586 0
DWIDTH 11 0
BBX 10 6 0 2
BITMAP
2BFFD0
3FFFE0
295500
055500
BFFF80
BFAA40
ENDCHAR
STARTCHAR greater
ENCODING 62
SWIDTH 634 0
DWIDTH 11 0
BBX 12 9 -1 0
BITMAP
050000
0BE800
03FF90
006FF8
001FFD
06FFE8
7FF900
BF4000
140000
ENDCHAR
STARTCHAR question
ENCODING 63
SWIDTH 556 0
DWIDTH 10 0
BBX 10 15 1 -1
BITMAP
014000
1FFE40
7FFFF0
7FFFF0
101FF0
006FE0
01FF80
0BF800
1FD000
2E0000
000000
640000
F80000
B80000
500000
ENDCHAR
STARTCHAR at
ENCODING 64
SWIDTH 732 0
DWIDTH 13 0
BBX 13 15 0 -1
BITMAP
00014000
000BE000
000FF800
007FBD00
01F81F00
0BE1AB40
2F9FE780
BE7FD380
F9F6D780
F5FBEF00
E0BFF800
B8150000
3FEAB400
07FFFC00
00155000
ENDCHAR
STARTCHAR A
ENCODING 65
SWIDTH 702 0
DWIDTH 13 0
BBX 14 13 -1 0
BITMAP
00019000
0007F400
006FF800
00BFF800
01FFFC00
02FCFC00
07F4BE40
0BFAFFD0
1FFFFF80
2FAFFF00
3F042F40
7E00BF00
2D007D00
ENDCHAR
STARTCHAR B
ENCODING 66
SWIDTH 686 0
DWIDTH 12 0
BBX 13 14 -1 -1
BITMAP
05BFF800
2FFFFE00
7FF9BF00
2FD1FF00
05FBFD00
01FFF400
02FFF800
03FA6E00
07E01F80
0BD0BF80
0FEBFF40
0FFFFD00
0BFF9000
01140000
ENDCHAR
STARTCHAR C
ENCODING 67
SWIDTH 611 0
DWIDTH 11 0
BBX 11 13 0 0
BITMAP
0002D0
002FF4
01FFF4
0BFFE0
2FF900
7FD000
FF0000
FC0000
F80000
BE5000
7FFFE0
1FFFF0
01BFD0
ENDCHAR
STARTCHAR D
ENCODING 68
SWIDTH 588 0
DWIDTH 11 0
BBX 11 13 0 0
BITMAP
290000
2FE000
2FFD00
3EBF40
2D0BD0
2E02F0
2E00F4
3E06F4
7D2FE0
7FFF80
BFFD00
BFE000
7D0000
ENDCHAR
STARTCHAR E
ENCODING 69
SWIDTH 626 0
DWIDTH 11 0
BBX 12 13 0 0
BITMAP
0016B8
06FFFE
2FFFF8
2FFE40
1FC000
0FFF80
2FFFE0
3FFF40
BE0000
BD0190
BFFFF4
BFFFF4
2FFE80
ENDCHAR
STARTCHAR F
ENCODING 70
SWIDTH 575 0
DWIDTH 10 0
BBX 14 14 -1 0
BITMAP
00000100
0006FF80
01BFFFE0
0FFFEA50
0BFD0000
02F80000
02F40000
2BFAF400
7FFFF800
3FFFA000
1F900000
2F400000
2F000000
0F000000
ENDCHAR
STARTCHAR G
ENCODING 71
SWIDTH 789 0
DWIDTH 14 0
BBX 15 13 0 0
BITMAP
0000A400
000BFC00
007FFC00
01FFE000
07FE0000
1FF41800
3FD07F80
BF403FF0
FD002FFC
BD1AFFF8
BFFFFFD0
3FFFF900
1BFA4000
ENDCHAR
STARTCHAR H
ENCODING 72
SWIDTH 695 0
DWIDTH 13 0
BBX 12 14 0 -1
BITMAP
050028
0E002D
1F803F
1F803F
1F807F
2F807F
2F45FF
3FFFFE
7FFFFD
BFFAFC
FF82F8
FE01F8
BC00A0
100000
ENDCHAR
STARTCHAR I
ENCODING 73
SWIDTH 515 0
DWIDTH 9 0
BBX 13 13 -1 0
BITMAP
02BFFE00
03FFFF80
02FFE900
004F8000
001F4000
002F0000
003E0000
007E0000
00BD0000
01F80000
6BFF4000
BFFFC000
7EA90000
ENDCHAR
STARTCHAR J
ENCODING 74
SWIDTH 668 0
DWIDTH 12 0
BBX 16 13 -1 0
BITMAP
005AAAA4
0BFFFFFC
0BFFFFFD
0795BD00
0000FC00
0000F800
0001F800
0002F400
0003F000
140BE000
7FFFD000
3FFF4000
1AF90000
ENDCHAR
STARTCHAR K
ENCODING 75
SWIDTH 776 0
DWIDTH 14 0
BBX 15 13 0 0
BITMAP
01E00100
03F80B80
07F47FD0
0BF2FFC0
0FEBFE00
1FFFE400
2FFF8000
3FFF0000
7FFF9000
BFDBFFE0
BF82FFF4
7E006FE0
3C000000
ENDCHAR
STARTCHAR L
ENCODING 76
SWIDTH 632 0
DWIDTH 11 0
BBX 11 13 0 0
BITMAP
039000
07F000
0BF000
0FD000
1FC000
2F8000
3F4000
7F0000
BE0000
BE6A80
BFFFF8
7FFFFC
2FE564
ENDCHAR
STARTCHAR M
ENCODING 77
SWIDTH 973 0
DWIDTH 18 0
BBX 18 14 0 -1
BITMAP
0078000A00
00FE001F80
02FF407FD0
07FF42FFC0
0BFF5BFFC0
1FFFFFFFC0
2FFFFFEF80
3FAFFE2F80
7F4BE43F40
BF00003F40
FD00003F00
BC00003E00
7400001800
1000000000
ENDCHAR
STARTCHAR N
ENCODING 78
SWIDTH 684 0
DWIDTH 12 0
BBX 13 13 0 0
BITMAP
00900D00
01F81F40
03FC2F80
07FC3F40
0BF83F00
1FF47E00
2FF4BE00
7FF5FD00
BFFBFD00
FFBFFC00
FD3FF400
BC0FE000
38024000
ENDCHAR
STARTCHAR O
ENCODING 79
SWIDTH 744 0
DWIDTH 13 0
BBX 13 14 0 0
BITMAP
00004000
0006E000
001FF800
007FF400
01FFF800
07FEBD00
1FE03E00
3F802F40
7F000F40
BD001F80
BD05FF80
BFFFFF40
7FFFF800
1FFE8000
ENDCHAR
STARTCHAR P
ENCODING 80
SWIDTH 639 0
DWIDTH 12 0
BBX 12 13 0 0
BITMAP
007FE4
01FFFC
03FFFE
07F5BF
1FC1BF
3FEFFF
3FFFFD
7FFFE0
3FE500
3F4000
3F0000
7F0000
3E0000
ENDCHAR
STARTCHAR Q
ENCODING 81
SWIDTH 744 0
DWIDTH 13 0
BBX 13 14 0 -1
BITMAP
0007E000
000BF800
002FFD00
00BFFE00
07FE1F40
1FF40F80
3FD50BC0
BF4FDFC0
FD07FF80
F81BFF00
FEFFFD00
BFFFFE00
2FF93F00
01001E00
ENDCHAR
STARTCHAR R
ENCODING 82
SWIDTH 646 0
DWIDTH 12 0
BBX 12 14 0 -1
BITMAP
002E00
007FC0
01FFE0
0BFBF0
1FD2F4
2F9BF8
3FFFF4
7FFF80
7FF400
7FF400
BFFF94
BCBFFD
781BFE
000068
ENDCHAR
STARTCHAR S
ENCODING 83
SWIDTH 576 0
DWIDTH 10 0
BBX 13 14 0 -1
BITMAP
001BFD00
06FFFF00
3FFFFF40
BFE40000
BFF40000
7FFE0000
05BF4000
00078000
000BC000
007F8000
2BFF0000
3FF80000
2F900000
04000000
ENDCHAR
STARTCHAR T
ENCODING 84
SWIDTH 607 0
DWIDTH 11 0
BBX 14 14 0 -1
BITMAP
056AFFD0
FFFFFFF0
BFFFFE90
6ABF0000
00BE0000
00FD0000
01F80000
02F40000
03F00000
07D00000
07C00000
07D00000
02E00000
00400000
ENDCHAR
STARTCHAR U
ENCODING 85
SWIDTH 695 0
DWIDTH 13 0
BBX 12 13 1 0
BITMAP
000018
10002D
78003E
BC003F
BD007E
FD00FE
FC02FC
FC0BF8
FD6FE0
FFFF80
BFFF00
3FF800
1A9000
ENDCHAR
STARTCHAR V
ENCODING 86
SWIDTH 583 0
DWIDTH 11 0
BBX 11 13 1 0
BITMAP
6000B4
B401F8
BC07F8
BD0FF0
BD2FD0
BD7F40
BEFE00
7FFC00
7FF400
3FE000
3FD000
2F8000
0F4000
ENDCHAR
STARTCHAR W
ENCODING 87
SWIDTH 994 0
DWIDTH 18 0
BBX 19 13 0 0
BITMAP
02400000A0
07D00800F4
0FD02E02F8
1FC07F03F8
2F80FF07F0
2F42FE0BE0
3F47FD1FD0
7F0FFD2F80
7E3FFEBF40
BFFFBFFE00
7FFE1FFD00
2FF80BF400
0A9003D000
ENDCHAR
STARTCHAR X
ENCODING 88
SWIDTH 623 0
DWIDTH 11 0
BBX 14 14 -1 -1
BITMAP
06400140
0BD01FC0
0BF47FD0
07FEFF80
01FFF800
00BFE000
01FF8000
07FFC000
0FFFE000
2FD3F800
3F41FC00
7E00FC00
3C007400
14000000
ENDCHAR
STARTCHAR Y
ENCODING 89
SWIDTH 493 0
DWIDTH 9 0
BBX 10 14 1 -1
BITMAP
E407D0
FC1FE0
BC3FD0
BDBF40
7FFD00
7FF800
2FF000
1FD000
2F8000
7F4000
BE0000
FC0000
F80000
200000
ENDCHAR
STARTCHAR Z
ENCODING 90
SWIDTH 664 0
DWIDTH 12 0
BBX 13 14 0 -1
BITMAP
06FAA900
07FFFF40
03FFFF40
0042FE00
000FF800
007FD000
02FF4000
1FF90000
BFE00000
FF41B400
FFAFFD00
FFFFF400
7FFE4000
1A500000
ENDCHAR
STARTCHAR bracketleft
ENCODING 91
SWIDTH 387 0
DWIDTH 7 0
BBX 14 20 -1 -3
BITMAP
00001400
006FFFD0
007FFFE0
007E9540
00BC0000
00F80000
01F40000
01F40000
02F00000
03E00000
07D00000
0BD00000
0FC00000
0F800000
1F400000
2F000000
3E040000
7FFF4000
7FFF8000
3A550000
ENDCHAR
STARTCHAR backslash
ENCODING 92
SWIDTH 352 0
DWIDTH 6 0
BBX 4 15 1 -1
BITMAP
40
E0
F4
B8
B8
7C
3C
3D
2D
2E
1E
1F
1F
0F
05
ENDCHAR
STARTCHAR bracketright
ENCODING 93
SWIDTH 403 0
DWIDTH 7 0
BBX 13 20 -5 -3
BITMAP
00015400
00BFFF00
00BFFF40
00696F40
00002F00
00003E00
00003E00
00007D00
0000BC00
0000F800
0001F400
0001F400
0002F000
0003E000
0007D000
000BC000
001F8000
AFFF8000
FFFF0000
B9540000
ENDCHAR
STARTCHAR asciicircum
ENCODING 94
SWIDTH 518 0
DWIDTH 9 0
BBX 9 11 0 3
BITMAP
001400
003C00
007D00
00FE00
02FF00
07EF00
0F9F00
2F1F00
BD0F00
F80B40
600200
ENDCHAR
STARTCHAR underscore
ENCODING 95
SWIDTH 708 0
DWIDTH 13 0
BBX 15 4 -2 -1
BITMAP
00001000
BFFFFFE0
7FFFFFF8
19555500
ENDCHAR
STARTCHAR grave
ENCODING 96
SWIDTH 754 0
DWIDTH 14 0
BBX 6 6 5 8
BITMAP
1000
7800
BE00
2F80
0BD0
01D0
ENDCHAR
STARTCHAR a
ENCODING 97
SWIDTH 581 0
DWIDTH 10 0
BBX 12 11 -1 0
BITMAP
000500
001F80
00FFC0
02FFC0
03FBD0
0BD3E4
0FEBFD
1FFFF8
3E6AF4
7D02F4
3C02E0
ENDCHAR
STARTCHAR b
ENCODING 98
SWIDTH 573 0
DWIDTH 10 0
BBX 11 12 -1 -1
BITMAP
05AA80
2FFFE0
7FE7F4
2EDBF0
03FFD0
03FF80
07EAF0
0BC0B8
0F9BF8
1FFFE0
0FFE40
055000
ENDCHAR
STARTCHAR c
ENCODING 99
SWIDTH 513 0
DWIDTH 9 0
BBX 9 11 0 0
BITMAP
000A00
007F80
07FF80
1FF900
7FD000
BE0000
F80000
F40000
BE9500
3FFF40
0AFF00
ENDCHAR
STARTCHAR d
ENCODING 100
SWIDTH 497 0
DWIDTH 9 0
BBX 9 11 0 0
BITMAP
240000
3F8000
3FF400
39BD00
3C0F00
3C0780
3C1F80
7DBF00
BFFD00
BFE000
7D0000
ENDCHAR
STARTCHAR e
ENCODING 101
SWIDTH 521 0
DWIDTH 9 0
BBX 10 12 0 -1
BITMAP
001680
1AFFE0
3FFF80
2F9000
1FA800
2FFF00
3FF900
BC0000
BD6B40
BFFF80
7FFE00
050000
ENDCHAR
STARTCHAR f
ENCODING 102
SWIDTH 455 0
DWIDTH 8 0
BBX 12 11 -1 0
BITMAP
0006B8
06FFFD
0FFE54
0FE000
03D000
1BEA40
7FFFC0
3FFA40
2F0000
2E0000
1D0000
ENDCHAR
STARTCHAR g
ENCODING 103
SWIDTH 652 0
DWIDTH 12 0
BBX 13 11 0 0
BITMAP
00064000
002FD000
01FFD000
07FD0000
1FE04000
3F82F400
BE01FE00
F801FF40
BABFFF00
7FFFE400
2FE90000
ENDCHAR
STARTCHAR h
ENCODING 104
SWIDTH 582 0
DWIDTH 10 0
BBX 10 12 0 -1
BITMAP
040080
1D01D0
2E01F0
2F02F0
2E02F0
3E07F0
7FFFE0
BFFFD0
FF9BC0
FD0BC0
B80740
100000
ENDCHAR
STARTCHAR i
ENCODING 105
SWIDTH 320 0
DWIDTH 6 0
BBX 4 12 1 -1
BITMAP
08
2D
3E
3E
7D
BC
B8
F8
F8
B8
78
10
ENDCHAR
STARTCHAR j
ENCODING 106
SWIDTH 534 0
DWIDTH 10 0
BBX 13 11 -1 0
BITMAP
0055A900
0FFFFF80
0FFFFB80
0643D000
0007D000
000BC000
000B8000
001F4000
297F0000
7FFD0000
2BF40000
ENDCHAR
STARTCHAR k
ENCODING 107
SWIDTH 645 0
DWIDTH 12 0
BBX 12 12 0 -1
BITMAP
024000
07D078
0BD2FD
0F9FF4
2FFF80
3FFE00
7FF800
7FFE54
BF5FFE
BD06FE
780054
100000
ENDCHAR
STARTCHAR l
ENCODING 108
SWIDTH 533 0
DWIDTH 10 0
BBX 9 12 0 -1
BITMAP
064000
0BC000
0FC000
1F4000
2F0000
3E0000
7D0000
BC0000
BEBE40
BFFFC0
7FEA80
040000
ENDCHAR
STARTCHAR m
ENCODING 109
SWIDTH 814 0
DWIDTH 15 0
BBX 15 12 0 -1
BITMAP
00900040
02F802E0
07FC0BF4
0FFC2FF4
1FFEFFF0
2FFFFFF0
7FBFE2E0
BD1A43E0
FC0003D0
B80003C0
B4000240
10000000
ENDCHAR
STARTCHAR n
ENCODING 110
SWIDTH 564 0
DWIDTH 10 0
BBX 12 11 -1 0
BITMAP
005024
00F43D
02FC7D
03F8BC
07F4B8
0FF4F8
1FF6F8
3FFFF4
7F7FF0
3E1FD0
1D0640
ENDCHAR
STARTCHAR o
ENCODING 111
SWIDTH 628 0
DWIDTH 11 0
BBX 11 12 0 -1
BITMAP
000B00
003F80
01FF80
07FFC0
1FD2E0
3F41F0
7D00B4
B801F8
B96FF4
BFFFE0
2FFE40
004000
ENDCHAR
STARTCHAR p
ENCODING 112
SWIDTH 524 0
DWIDTH 9 0
BBX 10 12 0 -1
BITMAP
00AE40
03FFD0
0BFFE0
0F82F0
3F6FF0
7FFFD0
7FFE40
3E9000
7D0000
7D0000
7C0000
100000
ENDCHAR
STARTCHAR q
ENCODING 113
SWIDTH 625 0
DWIDTH 11 0
BBX 11 12 0 -1
BITMAP
001A00
002FC0
00BFD0
02FEF0
1FE0B8
7F9478
BD3EB8
F81FF4
F5BFE0
BFFFE0
7FE6F0
0400A0
ENDCHAR
STARTCHAR r
ENCODING 114
SWIDTH 541 0
DWIDTH 10 0
BBX 10 12 0 -1
BITMAP
006400
01FE00
03FF40
2FDF80
2F5FC0
3FFF80
7FFD00
7FD000
BFE400
BAFFD0
746FE0
000590
ENDCHAR
STARTCHAR s
ENCODING 115
SWIDTH 463 0
DWIDTH 8 0
BBX 11 12 0 -1
BITMAP
005A90
07FFF0
7FFBF4
BF8000
BFF400
1AF800
002D00
003D00
06FC00
3FF400
3F8000
140000
ENDCHAR
STARTCHAR t
ENCODING 116
SWIDTH 479 0
DWIDTH 9 0
BBX 12 12 0 -1
BITMAP
016AB8
FFFFFE
BFFEA9
15F800
01F000
03E000
07D000
0BC000
0B4000
0B4000
07C000
014000
ENDCHAR
STARTCHAR u
ENCODING 117
SWIDTH 584 0
DWIDTH 11 0
BBX 10 11 1 0
BITMAP
000080
1001D0
B401E0
B802F0
F803E0
F80BD0
F42F80
F9FF40
BFFD00
7FF400
2F8000
ENDCHAR
STARTCHAR v
ENCODING 118
SWIDTH 485 0
DWIDTH 9 0
BBX 9 11 1 0
BITMAP
500240
B00BC0
B81F80
B87F40
BCBD00
BEF800
7FF000
7FD000
3F8000
3F0000
1E0000
ENDCHAR
STARTCHAR w
ENCODING 119
SWIDTH 825 0
DWIDTH 15 0
BBX 16 11 0 0
BITMAP
01000018
0B40902D
1F81F03E
2F43F0BD
3F0BF0FC
3E1FE1F8
7D3FE3F0
BDBFEBE0
BFFDFFC0
3FF0BF40
1F803D00
ENDCHAR
STARTCHAR x
ENCODING 120
SWIDTH 506 0
DWIDTH 9 0
BBX 11 12 -1 -1
BITMAP
050014
0B80BC
0BE6FC
07FFE4
01FF80
01FD00
07FE00
1FEF40
3F4FC0
7D07D0
3802C0
140000
ENDCHAR
STARTCHAR y
ENCODING 121
SWIDTH 400 0
DWIDTH 7 0
BBX 8 12 1 -1
BITMAP
9019
F47F
F8FE
BAF8
7FE0
3FC0
2F80
3F00
BD00
F800
F400
5000
ENDCHAR
STARTCHAR z
ENCODING 122
SWIDTH 547 0
DWIDTH 10 0
BBX 11 12 0 -1
BITMAP
06AA90
0BFFF4
07EFF4
001FD0
00BF40
07FD00
2FE000
BF4000
FD6B80
FFFFC0
BFF900
1A4000
ENDCHAR
STARTCHAR braceleft
ENCODING 123
SWIDTH 448 0
DWIDTH 8 0
BBX 15 20 0 -3
BITMAP
00000500
002FFFE0
002FFFF4
003F9540
003E0000
007D0000
00BC0000
02FC0000
6FF40000
BF800000
7F800000
1FE00000
07E00000
07D00000
0BC00000
0F800000
1F410000
2FFF8000
2FFFD000
1E950000
ENDCHAR
STARTCHAR bar
ENCODING 124
SWIDTH 332 0
DWIDTH 6 0
BBX 6 14 0 -1
BITMAP
00D0
01E0
02F0
03D0
07C0
0B80
0F40
1F00
2E00
3D00
7C00
F800
F400
1000
ENDCHAR
STARTCHAR braceright
ENCODING 125
SWIDTH 481 0
DWIDTH 9 0
BBX 14 20 -5 -3
BITMAP
00055400
00BFFE00
00FFFF40
00696F00
00003E00
00003E00
00007D00
0000BC00
0000FD00
0000FF40
00002FC0
0000BFD0
0003FE40
0007E000
000BD000
000FC000
001F8000
AFFF4000
FFFF0000
B9540000
ENDCHAR
STARTCHAR asciitilde
ENCODING 126
SWIDTH 581 0
DWIDTH 10 0
BBX 10 4 0 3
BITMAP
1FE1E0
7FFFD0
F4BF40
000400
ENDCHAR
STARTCHAR uni00A0
ENCODING 160
SWIDTH 370 0
DWIDTH 7 0
BBX 1 1 0 0
BITMAP
00
ENDCHAR
STARTCHAR exclamdown
ENCODING 161
SWIDTH 260 0
DWIDTH 5 0
BBX 5 15 0 -1
BITMAP
0100
0F40
1F80
1A00
0000
1800
3D00
7D00
7D00
BC00
B800
F800
F400
F000
4000
ENDCHAR
STARTCHAR cent
ENCODING 162
SWIDTH 488 0
DWIDTH 9 0
BBX 9 14 0 -1
BITMAP
003400
007800
00BE00
02FF40
1FF900
7F9000
BD0000
B40000
B94000
3FFE00
0FFE00
0F4000
1F0000
050000
ENDCHAR
STARTCHAR sterling
ENCODING 163
SWIDTH 586 0
DWIDTH 11 0
BBX 11 11 0 1
BITMAP
001A50
00BFF4
02FAF4
03E000
5BFA00
BFFF80
7FA500
0F4100
AFAFC0
FFFFC0
6AA500
ENDCHAR
STARTCHAR currency
ENCODING 164
SWIDTH 509 0
DWIDTH 9 0
BBX 9 10 0 0
BITMAP
145140
2EFF80
1FFF40
1FFD00
3E3D00
7EBE00
7FFD00
BFFD00
B02D00
500400
ENDCHAR
STARTCHAR yen
ENCODING 165
SWIDTH 563 0
DWIDTH 10 0
BBX 10 12 0 0
BITMAP
000040
0F41F0
0B87F0
0B8FD0
07FF40
07FE00
BFFF80
BFFFD0
2BE000
0BD000
0F8000
0B0000
ENDCHAR
STARTCHAR brokenbar
ENCODING 166
SWIDTH 301 0
DWIDTH 5 0
BBX 6 13 0 0
BITMAP
00C0
02E0
03E0
07D0
0B80
0B40
0000
0000
3D00
7D00
B800
F400
F000
ENDCHAR
STARTCHAR section
ENCODING 167
SWIDTH 630 0
DWIDTH 11 0
BBX 11 16 0 -2
BITMAP
016FF4
0FFFFC
1FFAA4
1FE000
0FFE00
0BFFD0
2FFFF4
7F42F8
3FABF4
1FFFE0
07FFC0
007FE0
105FE0
BFFFE0
BFFF80
1A9000
ENDCHAR
STARTCHAR dieresis
ENCODING 168
SWIDTH 754 0
DWIDTH 14 0
BBX 8 3 4 10
BITMAP
B83D
FC3E
A418
ENDCHAR
STARTCHAR copyright
ENCODING 169
SWIDTH 614 0
DWIDTH 11 0
BBX 11 11 0 2
BITMAP
006E40
03F9D0
0F4274
2D6F78
3DF92C
76802C
B3403C
B6F874
7869E0
1D5B80
06FD00
ENDCHAR
STARTCHAR ordfeminine
ENCODING 170
SWIDTH 454 0
DWIDTH 8 0
BBX 8 9 0 3
BITMAP
0050
02F4
0FF4
1FF8
3FBE
7FFE
FAFD
B47C
0010
ENDCHAR
STARTCHAR guillemotleft
ENCODING 171
SWIDTH 566 0
DWIDTH 10 0
BBX 10 9 0 -1
BITMAP
008050
03D2E0
1F8BD0
BEBF40
F8BC00
BD7E00
2F1F40
0B4780
000040
ENDCHAR
STARTCHAR logicalnot
ENCODING 172
SWIDTH 698 0
DWIDTH 13 0
BBX 12 6 0 0
BITMAP
AFFFF4
BFFFFD
6955BC
0000F8
0001F4
0001E0
ENDCHAR
STARTCHAR sfthyphen
ENCODING 173
SWIDTH 608 0
DWIDTH 11 0
BBX 10 3 0 3
BITMAP
6FFF80
7FFFE0
295500
ENDCHAR
STARTCHAR registered
ENCODING 174
SWIDTH 624 0
DWIDTH 11 0
BBX 11 11 0 2
BITMAP
006F40
02F9A0
0B8A74
1E2F68
3CB7AC
78FF5C
75F82C
76FE78
394BF0
1E5BC0
06FE00
ENDCHAR
STARTCHAR macron
ENCODING 175
SWIDTH 754 0
DWIDTH 14 0
BBX 7 4 4 10
BITMAP
0150
7FF8
7FF8
1000
ENDCHAR
STARTCHAR degree
ENCODING 176
SWIDTH 284 0
DWIDTH 5 0
BBX 6 6 1 9
BITMAP
0140
0BC0
2FD0
7EE0
7FE0
2F80
ENDCHAR
STARTCHAR plusminus
ENCODING 177
SWIDTH 559 0
DWIDTH 10 0
BBX 11 14 -1 -1
BITMAP
000100
000F00
001F00
002F00
0AFFE4
0FFFFC
0ABE50
00BD00
00BC00
006400
055540
7FFFD0
7FFF90
140000
ENDCHAR
STARTCHAR twosuperior
ENCODING 178
SWIDTH 386 0
DWIDTH 7 0
BBX 7 7 1 6
BITMAP
6A40
BFE0
1BE0
2F80
BFB4
BFF8
6A50
ENDCHAR
STARTCHAR threesuperior
ENCODING 179
SWIDTH 366 0
DWIDTH 7 0
BBX 6 7 1 6
BITMAP
2A90
BFE0
7FD0
1FD0
1BF0
2FF0
1A40
ENDCHAR
STARTCHAR acute
ENCODING 180
SWIDTH 754 0
DWIDTH 14 0
BBX 6 6 5 8
BITMAP
0040
07C0
1FD0
3F80
BD00
A400
ENDCHAR
STARTCHAR mu
ENCODING 181
SWIDTH 569 0
DWIDTH 10 0
BBX 10 12 0 -2
BITMAP
000040
0400E0
2D00F0
2E01F0
3D03E0
7D0BD0
7D6F80
BFFE00
FFF800
FFD000
F00000
A00000
ENDCHAR
STARTCHAR paragraph
ENCODING 182
SWIDTH 729 0
DWIDTH 13 0
BBX 14 15 1 -1
BITMAP
00005900
01AFFF80
1FFFFFD0
BFFFBE40
FF6F3D00
BC3E7C00
7E7DBC00
2FFEB800
06FFF800
00FFFD00
00FAF000
00F6E000
01F2F000
02E1F400
00405000
ENDCHAR
STARTCHAR periodcentered
ENCODING 183
SWIDTH 226 0
DWIDTH 4 0
BBX 4 3 0 5
BITMAP
2D
7E
28
ENDCHAR
STARTCHAR cedilla
ENCODING 184
SWIDTH 754 0
DWIDTH 14 0
BBX 6 7 5 -6
BITMAP
1E00
3D00
3F80
1BE0
56F0
FFD0
5500
ENDCHAR
STARTCHAR onesuperior
ENCODING 185
SWIDTH 206 0
DWIDTH 4 0
BBX 3 7 1 6
BITMAP
24
7C
3C
7C
B8
B4
60
ENDCHAR
STARTCHAR ordmasculine
ENCODING 186
SWIDTH 445 0
DWIDTH 8 0
BBX 8 9 0 3
BITMAP
0060
02F8
0BF8
2FFC
7E3E
BDBE
BFFE
7FF8
0540
ENDCHAR
STARTCHAR guillemotright
ENCODING 187
SWIDTH 595 0
DWIDTH 11 0
BBX 11 9 -1 -1
BITMAP
140800
1E0B40
0FD7E0
02F1F4
02F1F8
1FDBE4
7E2F40
742C00
100000
ENDCHAR
STARTCHAR onequarter
ENCODING 188
SWIDTH 705 0
DWIDTH 13 0
BBX 12 14 0 -1
BITMAP
1800B0
1E01F0
1F07E0
1E0FC0
2E2F00
3DBD00
29F828
07EB3C
0F8BBE
2F0BFF
7D02F4
7C00F0
7800F4
000010
ENDCHAR
STARTCHAR onehalf
ENCODING 189
SWIDTH 750 0
DWIDTH 14 0
BBX 13 13 0 0
BITMAP
1800B000
1E01F000
1F07E000
1E0FC000
2E2F0000
3DBD0000
29F55000
07E7FD00
0F86FE00
2F01FC00
7D07F600
7C0BFF40
7807F900
ENDCHAR
STARTCHAR threequarters
ENCODING 190
SWIDTH 818 0
DWIDTH 15 0
BBX 13 14 1 -1
BITMAP
7FD00A00
BFF02E00
2FD0BE00
2FC1F800
6FD7E000
BF9F8000
157E0700
01FACF00
07E2EF80
1F82FF80
3E01BD00
7D00B800
78007800
00001000
ENDCHAR
STARTCHAR questiondown
ENCODING 191
SWIDTH 556 0
DWIDTH 10 0
BBX 10 14 -1 -1
BITMAP
0001E0
0002F0
0001F0
000000
000640
002F80
01FF00
1BF800
7FE000
BF4000
FFAAD0
FFFFD0
6FFF80
016900
ENDCHAR
STARTCHAR Agrave
ENCODING 192
SWIDTH 702 0
DWIDTH 13 0
BBX 14 20 -1 0
BITMAP
00010000
00078000
000BE000
0002F800
0000BD00
00001D00
00000000
00019000
0007F400
006FF800
00BFF800
01FFFC00
02FCFC00
07F4BE40
0BFAFFD0
1FFFFF80
2FAFFF00
3F042F40
7E00BF00
2D007D00
ENDCHAR
STARTCHAR Aacute
ENCODING 193
SWIDTH 702 0
DWIDTH 13 0
BBX 14 20 -1 0
BITMAP
00000400
00002D00
0000FE00
0002F800
000BE000
00074000
00000000
00019000
0007F400
006FF800
00BFF800
01FFFC00
02FCFC00
07F4BE40
0BFAFFD0
1FFFFF80
2FAFFF00
3F042F40
7E00BF00
2D007D00
ENDCHAR
STARTCHAR Acircumflex
ENCODING 194
SWIDTH 702 0
DWIDTH 13 0
BBX 14 18 -1 0
BITMAP
0001A000
0007FC00
001FBF40
002E0F40
00080200
00019000
0007F400
006FF800
00BFF800
01FFFC00
02FCFC00
07F4BE40
0BFAFFD0
1FFFFF80
2FAFFF00
3F042F40
7E00BF00
2D007D00
ENDCHAR
STARTCHAR Atilde
ENCODING 195
SWIDTH 702 0
DWIDTH 13 0
BBX 14 18 -1 0
BITMAP
00015050
0007F9F0
001FBFD0
001D2F40
00000000
00019000
0007F400
006FF800
00BFF800
01FFFC00
02FCFC00
07F4BE40
0BFAFFD0
1FFFFF80
2FAFFF00
3F042F40
7E00BF00
2D007D00
ENDCHAR
STARTCHAR Adieresis
ENCODING 196
SWIDTH 702 0
DWIDTH 13 0
BBX 14 17 -1 0
BITMAP
001E0F80
002F4F80
00190600
00000000
00019000
0007F400
006FF800
00BFF800
01FFFC00
02FCFC00
07F4BE40
0BFAFFD0
1FFFFF80
2FAFFF00
3F042F40
7E00BF00
2D007D00
ENDCHAR
STARTCHAR Aring
ENCODING 197
SWIDTH 702 0
DWIDTH 13 0
BBX 14 18 -1 0
BITMAP
00000400
00003C00
0001FD00
0002EE00
0007FF00
0003FD00
0007F400
006FF800
00BFF800
01FFFC00
02FCFC00
07F4BE40
0BFAFFD0
1FFFFF80
2FAFFF00
3F042F40
7E00BF00
2D007D00
ENDCHAR
STARTCHAR AE
ENCODING 198
SWIDTH 1153 0
DWIDTH 21 0
BBX 23 13 -1 0
BITMAP
0000A4006AD0
0002FC6FFFF4
002FFDFFFFD0
00BFFCFFE400
01FFFCBD0000
02FCFCBFFD00
07F4FEFFFF00
0FEAFFFFF900
2FFFFFF40000
7F7FFFE01600
BD14BFFFFFC0
FC02FFFFFF80
B400F5FFF900
ENDCHAR
STARTCHAR Ccedilla
ENCODING 199
SWIDTH 611 0
DWIDTH 11 0
BBX 11 19 0 -6
BITMAP
0002D0
002FF4
01FFF4
0BFFE0
2FF900
7FD000
FF0000
FC0000
F80000
BE5000
7FFFE0
1FFFF0
02FFD0
07C000
07E000
02BC00
007D00
2FFD00
0A9000
ENDCHAR
STARTCHAR Egrave
ENCODING 200
SWIDTH 626 0
DWIDTH 11 0
BBX 12 20 0 0
BITMAP
001000
007800
00BF00
002FC0
000BE0
0001D0
000000
0016B8
06FFFE
2FFFF8
2FFE40
1FC000
0FFF80
2FFFE0
3FFF40
BE0000
BD0190
BFFFF4
BFFFF4
2FFE80
ENDCHAR
STARTCHAR Eacute
ENCODING 201
SWIDTH 626 0
DWIDTH 11 0
BBX 12 20 0 0
BITMAP
000010
0001F0
0007F4
000FE0
002F40
002900
000000
0016B8
06FFFE
2FFFF8
2FFE40
1FC000
0FFF80
2FFFE0
3FFF40
BE0000
BD0190
BFFFF4
BFFFF4
2FFE80
ENDCHAR
STARTCHAR Ecircumflex
ENCODING 202
SWIDTH 626 0
DWIDTH 11 0
BBX 12 19 0 0
BITMAP
000B40
002FD0
00BEF8
01F4BC
009014
000000
0016B8
06FFFE
2FFFF8
2FFE40
1FC000
0FFF80
2FFFE0
3FFF40
BE0000
BD0190
BFFFF4
BFFFF4
2FFE80
ENDCHAR
STARTCHAR Edieresis
ENCODING 203
SWIDTH 626 0
DWIDTH 11 0
BBX 12 17 0 0
BITMAP
00F47C
01F87D
00A024
000000
0016B8
06FFFE
2FFFF8
2FFE40
1FC000
0FFF80
2FFFE0
3FFF40
BE0000
BD0190
BFFFF4
BFFFF4
2FFE80
ENDCHAR
STARTCHAR Igrave
ENCODING 204
SWIDTH 515 0
DWIDTH 9 0
BBX 13 20 -1 0
BITMAP
00040000
002D0000
003F4000
001FD000
0007F000
0000A000
00000000
02BFFE00
03FFFF80
02FFE900
004F8000
001F4000
002F0000
003E0000
007E0000
00BD0000
01F80000
6BFF4000
BFFFC000
7EA90000
ENDCHAR
STARTCHAR Iacute
ENCODING 205
SWIDTH 515 0
DWIDTH 9 0
BBX 13 20 -1 0
BITMAP
00000100
00001F00
00007F40
0001FE00
0002F400
00029000
00000000
02BFFE00
03FFFF80
02FFE900
004F8000
001F4000
002F0000
003E0000
007E0000
00BD0000
01F80000
6BFF4000
BFFFC000
7EA90000
ENDCHAR
STARTCHAR Icircumflex
ENCODING 206
SWIDTH 515 0
DWIDTH 9 0
BBX 13 19 -1 0
BITMAP
0001D000
000BF800
002FBE00
003D1F00
00140500
00000000
02BFFE00
03FFFF80
02FFE900
004F8000
001F4000
002F0000
003E0000
007E0000
00BD0000
01F80000
6BFF4000
BFFFC000
7EA90000
ENDCHAR
STARTCHAR Idieresis
ENCODING 207
SWIDTH 515 0
DWIDTH 9 0
BBX 13 17 -1 0
BITMAP
002E0F40
003F0F80
00290600
00000000
02BFFE00
03FFFF80
02FFE900
004F8000
001F4000
002F0000
003E0000
007E0000
00BD0000
01F80000
6BFF4000
BFFFC000
7EA90000
ENDCHAR
STARTCHAR Eth
ENCODING 208
SWIDTH 656 0
DWIDTH 12 0
BBX 12 13 0 0
BITMAP
064000
0BF800
0BFF40
0BAFE0
0B81F4
BFF07C
FFF82D
FFD0BD
0F8BFC
1FFFF4
1FFF80
1FF900
0F8000
ENDCHAR
STARTCHAR Ntilde
ENCODING 209
SWIDTH 684 0
DWIDTH 12 0
BBX 14 18 0 0
BITMAP
00014040
001FF7D0
002FFF80
00387E00
00000000
00900D00
01F81F40
03FC2F80
07FC3F40
0BF83F00
1FF47E00
2FF4BE00
7FF5FD00
BFFBFD00
FFBFFC00
FD3FF400
BC0FE000
38024000
ENDCHAR
STARTCHAR Ograve
ENCODING 210
SWIDTH 744 0
DWIDTH 13 0
BBX 13 19 0 0
BITMAP
0003D000
0007F400
0001FD00
00007F00
00001A00
00004000
0006E000
001FF800
007FF400
01FFF800
07FEBD00
1FE03E00
3F802F40
7F000F40
BD001F80
BD05FF80
BFFFFF40
7FFFF800
1FFE8000
ENDCHAR
STARTCHAR Oacute
ENCODING 211
SWIDTH 744 0
DWIDTH 13 0
BBX 13 20 0 0
BITMAP
00001000
0000B400
0003F800
000BE000
002F8000
001D0000
00004000
0006E000
001FF800
007FF400
01FFF800
07FEBD00
1FE03E00
3F802F40
7F000F40
BD001F80
BD05FF80
BFFFFF40
7FFFF800
1FFE8000
ENDCHAR
STARTCHAR Ocircumflex
ENCODING 212
SWIDTH 744 0
DWIDTH 13 0
BBX 13 19 0 0
BITMAP
0001A000
0007F800
001FBF00
002E1F40
00180200
00004000
0006E000
001FF800
007FF400
01FFF800
07FEBD00
1FE03E00
3F802F40
7F000F40
BD001F80
BD05FF80
BFFFFF40
7FFFF800
1FFE8000
ENDCHAR
STARTCHAR Otilde
ENCODING 213
SWIDTH 744 0
DWIDTH 13 0
BBX 14 18 0 0
BITMAP
00014040
001FF7D0
002FFF80
00387E00
00004000
0006E000
001FF800
007FF400
01FFF800
07FEBD00
1FE03E00
3F802F40
7F000F40
BD001F80
BD05FF80
BFFFFF40
7FFFF800
1FFE8000
ENDCHAR
STARTCHAR Odieresis
ENCODING 214
SWIDTH 744 0
DWIDTH 13 0
BBX 13 17 0 0
BITMAP
002D1F40
003F1F80
00280600
00004000
0006E000
001FF800
007FF400
01FFF800
07FEBD00
1FE03E00
3F802F40
7F000F40
BD001F80
BD05FF80
BFFFFF40
7FFFF800
1FFE8000
ENDCHAR
STARTCHAR multiply
ENCODING 215
SWIDTH 490 0
DWIDTH 9 0
BBX 9 10 0 0
BITMAP
100000
2D0740
2F6F80
0FFD00
0BF000
1FE000
7FF400
B87C00
F03C00
A01400
ENDCHAR
STARTCHAR Oslash
ENCODING 216
SWIDTH 744 0
DWIDTH 13 0
BBX 13 17 0 -3
BITMAP
00004000
0006E780
001FFF80
007FFF80
01FFFF00
07FFFD00
1FE7FE00
3F8FEF40
7F2F8F40
BDBE1F80
BEFEFF80
BFFFFF40
7FFFF800
1FFE8000
1F800000
0F400000
01000000
ENDCHAR
STARTCHAR Ugrave
ENCODING 217
SWIDTH 695 0
DWIDTH 13 0
BBX 12 18 1 0
BITMAP
03D000
07F400
01FD00
007F00
001A00
000018
10002D
78003E
BC003F
BD007E
FD00FE
FC02FC
FC0BF8
FD6FE0
FFFF80
BFFF00
3FF800
1A9000
ENDCHAR
STARTCHAR Uacute
ENCODING 218
SWIDTH 695 0
DWIDTH 13 0
BBX 12 19 1 0
BITMAP
000010
0001F0
0007F4
001FE0
002F40
002900
000018
10002D
78003E
BC003F
BD007E
FD00FE
FC02FC
FC0BF8
FD6FE0
FFFF80
BFFF00
3FF800
1A9000
ENDCHAR
STARTCHAR Ucircumflex
ENCODING 219
SWIDTH 695 0
DWIDTH 13 0
BBX 12 19 1 0
BITMAP
001D00
00BF80
02FBE0
03D1F0
014050
000000
000018
10002D
78003E
BC003F
BD007E
FD00FE
FC02FC
FC0BF8
FD6FE0
FFFF80
BFFF00
3FF800
1A9000
ENDCHAR
STARTCHAR Udieresis
ENCODING 220
SWIDTH 695 0
DWIDTH 13 0
BBX 12 17 1 0
BITMAP
02D1F4
03F1F8
028050
000000
000018
10002D
78003E
BC003F
BD007E
FD00FE
FC02FC
FC0BF8
FD6FE0
FFFF80
BFFF00
3FF800
1A9000
ENDCHAR
STARTCHAR Yacute
ENCODING 221
SWIDTH 493 0
DWIDTH 9 0
BBX 10 20 1 -1
BITMAP
0007C0
001FD0
007F40
00FD00
00A400
000000
E407D0
FC1FE0
BC3FD0
BDBF40
7FFD00
7FF800
2FF000
1FD000
2F8000
7F4000
BE0000
FC0000
F80000
200000
ENDCHAR
STARTCHAR Thorn
ENCODING 222
SWIDTH 680 0
DWIDTH 12 0
BBX 13 13 0 0
BITMAP
07000000
0F800000
1FEA5000
1FFFF800
2FFFFF00
3F40BF40
3F41FF40
7F1FFD00
7FFFE400
7FFE4000
7F900000
3E000000
2D000000
ENDCHAR
STARTCHAR germandbls
ENCODING 223
SWIDTH 931 0
DWIDTH 17 0
BBX 19 12 0 -1
BITMAP
005A901AA0
07FFF6FFF4
7FFBFFFFF8
BF807FD000
BFF47FF800
1AF81ABD00
002D001E00
003D002F00
06FC05FD00
3FF42FF800
3F802F9000
1400040000
ENDCHAR
STARTCHAR agrave
ENCODING 224
SWIDTH 581 0
DWIDTH 10 0
BBX 12 17 -1 0
BITMAP
000400
002E00
003F80
001FE0
0002F4
0000B0
000500
001F80
00FFC0
02FFC0
03FBD0
0BD3E4
0FEBFD
1FFFF8
3E6AF4
7D02F4
3C02E0
ENDCHAR
STARTCHAR aacute
ENCODING 225
SWIDTH 581 0
DWIDTH 10 0
BBX 12 18 -1 0
BITMAP
000040
0001E0
0007F4
001FD0
003F40
002800
000000
000500
001F80
00FFC0
02FFC0
03FBD0
0BD3E4
0FEBFD
1FFFF8
3E6AF4
7D02F4
3C02E0
ENDCHAR
STARTCHAR acircumflex
ENCODING 226
SWIDTH 581 0
DWIDTH 10 0
BBX 12 16 -1 0
BITMAP
000740
002FE0
00BEF8
00F47C
005014
000500
001F80
00FFC0
02FFC0
03FBD0
0BD3E4
0FEBFD
1FFFF8
3E6AF4
7D02F4
3C02E0
ENDCHAR
STARTCHAR atilde
ENCODING 227
SWIDTH 581 0
DWIDTH 10 0
BBX 13 16 -1 0
BITMAP
00050500
007FDF40
00FBFE00
01E1F800
00000000
00050000
001F8000
00FFC000
02FFC000
03FBD000
0BD3E400
0FEBFD00
1FFFF800
3E6AF400
7D02F400
3C02E000
ENDCHAR
STARTCHAR adieresis
ENCODING 228
SWIDTH 581 0
DWIDTH 10 0
BBX 12 15 -1 0
BITMAP
00B83D
00BC3E
006418
000000
000500
001F80
00FFC0
02FFC0
03FBD0
0BD3E4
0FEBFD
1FFFF8
3E6AF4
7D02F4
3C02E0
ENDCHAR
STARTCHAR aring
ENCODING 229
SWIDTH 581 0
DWIDTH 10 0
BBX 12 15 -1 0
BITMAP
000090
0003E0
000FF0
001EB8
002FF4
001FD0
00FFC0
02FFC0
03FBD0
0BD3E4
0FEBFD
1FFFF8
3E6AF4
7D02F4
3C02E0
ENDCHAR
STARTCHAR ae
ENCODING 230
SWIDTH 948 0
DWIDTH 17 0
BBX 19 12 -1 -1
BITMAP
00024015A0
000BC6FFF4
00BFDFFFA0
02FFDFE400
03FBDBEA00
0BD7EFFF80
1FEBFFFE00
3FFFFE0000
BDABFE5A80
F80BFFFFD0
F00BAFFE40
0001014000
ENDCHAR
STARTCHAR ccedilla
ENCODING 231
SWIDTH 513 0
DWIDTH 9 0
BBX 9 16 0 -5
BITMAP
000A00
007F80
07FF80
1FF900
7FD000
BE0000
F80000
F40000
BE9500
3FFF40
0BFF00
078000
0BE000
01B800
16B800
1FE400
ENDCHAR
STARTCHAR egrave
ENCODING 232
SWIDTH 521 0
DWIDTH 9 0
BBX 10 18 0 -1
BITMAP
010000
078000
0BE000
02F800
00BD00
001D00
001680
1AFFE0
3FFF80
2F9000
1FA800
2FFF00
3FF900
BC0000
BD6B40
BFFF80
7FFE00
050000
ENDCHAR
STARTCHAR eacute
ENCODING 233
SWIDTH 521 0
DWIDTH 9 0
BBX 10 18 0 -1
BITMAP
000100
000780
002FC0
007F40
00FC00
00E000
001680
1AFFE0
3FFF80
2F9000
1FA800
2FFF00
3FF900
BC0000
BD6B40
BFFF80
7FFE00
050000
ENDCHAR
STARTCHAR ecircumflex
ENCODING 234
SWIDTH 521 0
DWIDTH 9 0
BBX 10 17 0 -1
BITMAP
001E00
00BF80
02FBE0
03E1F0
014050
001680
1AFFE0
3FFF80
2F9000
1FA800
2FFF00
3FF900
BC0000
BD6B40
BFFF80
7FFE00
050000
ENDCHAR
STARTCHAR edieresis
ENCODING 235
SWIDTH 521 0
DWIDTH 9 0
BBX 11 16 0 -1
BITMAP
02E0F4
02F0F8
019060
000000
001680
1AFFE0
3FFF80
2F9000
1FA800
2FFF00
3FF900
BC0000
BD6B40
BFFF80
7FFE00
050000
ENDCHAR
STARTCHAR igrave
ENCODING 236
SWIDTH 320 0
DWIDTH 6 0
BBX 6 19 1 -1
BITMAP
1000
7D00
7F40
2FC0
07E0
0190
0000
0800
2D00
3E00
3E00
7D00
BC00
B800
F800
F800
B800
7800
1000
ENDCHAR
STARTCHAR iacute
ENCODING 237
SWIDTH 320 0
DWIDTH 6 0
BBX 9 19 1 -1
BITMAP
000100
001F00
007F40
01FE00
02F400
029000
000000
080000
2D0000
3E0000
3E0000
7D0000
BC0000
B80000
F80000
F80000
B80000
780000
100000
ENDCHAR
STARTCHAR icircumflex
ENCODING 238
SWIDTH 320 0
DWIDTH 6 0
BBX 7 17 1 -1
BITMAP
0740
2FE0
BEF8
F47C
5014
0800
2D00
3E00
3E00
7D00
BC00
B800
F800
F800
B800
7800
1000
ENDCHAR
STARTCHAR idieresis
ENCODING 239
SWIDTH 320 0
DWIDTH 6 0
BBX 9 16 0 -1
BITMAP
3D1F00
7E2F40
280900
000000
020000
0B4000
0F8000
0F8000
1F4000
2F0000
2E0000
3E0000
3E0000
2E0000
1E0000
040000
ENDCHAR
STARTCHAR eth
ENCODING 240
SWIDTH 541 0
DWIDTH 10 0
BBX 11 11 -1 0
BITMAP
024000
03F800
07FF40
079BD0
1BE1F0
7FF4B4
7FD1F4
0B9FF0
0FFF80
0FFD00
0B9000
ENDCHAR
STARTCHAR ntilde
ENCODING 241
SWIDTH 564 0
DWIDTH 10 0
BBX 14 16 -1 0
BITMAP
00014040
000FF7D0
002FFFC0
00387E00
00000000
00502400
00F43D00
02FC7D00
03F8BC00
07F4B800
0FF4F800
1FF6F800
3FFFF400
7F7FF000
3E1FD000
1D064000
ENDCHAR
STARTCHAR ograve
ENCODING 242
SWIDTH 628 0
DWIDTH 11 0
BBX 11 18 0 -1
BITMAP
000400
003D00
007F40
001FD0
0007F0
0001A0
000B00
003F80
01FF80
07FFC0
1FD2E0
3F41F0
7D00B4
B801F8
B96FF4
BFFFE0
2FFE40
004000
ENDCHAR
STARTCHAR oacute
ENCODING 243
SWIDTH 628 0
DWIDTH 11 0
BBX 11 19 0 -1
BITMAP
000040
0002D0
000FE0
003F80
00BE00
007400
000000
000B00
003F80
01FF80
07FFC0
1FD2E0
3F41F0
7D00B4
B801F8
B96FF4
BFFFE0
2FFE40
004000
ENDCHAR
STARTCHAR ocircumflex
ENCODING 244
SWIDTH 628 0
DWIDTH 11 0
BBX 11 18 0 -1
BITMAP
000740
002FE0
00BEF8
00F47C
005014
000000
000B00
003F80
01FF80
07FFC0
1FD2E0
3F41F0
7D00B4
B801F8
B96FF4
BFFFE0
2FFE40
004000
ENDCHAR
STARTCHAR otilde
ENCODING 245
SWIDTH 628 0
DWIDTH 11 0
BBX 13 17 0 -1
BITMAP
00050100
003FDF40
00BFFF00
00E1F800
00000000
000B0000
003F8000
01FF8000
07FFC000
1FD2E000
3F41F000
7D00B400
B801F800
B96FF400
BFFFE000
2FFE4000
00400000
ENDCHAR
STARTCHAR odieresis
ENCODING 246
SWIDTH 628 0
DWIDTH 11 0
BBX 12 16 0 -1
BITMAP
00B83D
00FC3E
00A418
000000
000B00
003F80
01FF80
07FFC0
1FD2E0
3F41F0
7D00B4
B801F8
B96FF4
BFFFE0
2FFE40
004000
ENDCHAR
STARTCHAR divide
ENCODING 247
SWIDTH 559 0
DWIDTH 10 0
BBX 9 11 0 0
BITMAP
001000
00B800
00FC00
00A400
055500
BFFF80
BFFF80
140000
039000
0BD000
07C000
ENDCHAR
STARTCHAR oslash
ENCODING 248
SWIDTH 632 0
DWIDTH 11 0
BBX 11 13 0 -2
BITMAP
000B24
003FF8
01FFF8
07FFE0
1FDFE0
3F6FF4
7D7DB4
B9F9F8
BBFFF8
BFFFE0
2FFE40
2F4000
1E0000
ENDCHAR
STARTCHAR ugrave
ENCODING 249
SWIDTH 584 0
DWIDTH 11 0
BBX 10 17 1 0
BITMAP
010000
078000
0BE000
02F800
00BD00
001D00
000080
1001D0
B401E0
B802F0
F803E0
F80BD0
F42F80
F9FF40
BFFD00
7FF400
2F8000
ENDCHAR
STARTCHAR uacute
ENCODING 250
SWIDTH 584 0
DWIDTH 11 0
BBX 10 16 1 0
BITMAP
0007C0
001FD0
007F40
00FD00
00A400
000080
1001D0
B401E0
B802F0
F803E0
F80BD0
F42F80
F9FF40
BFFD00
7FF400
2F8000
ENDCHAR
STARTCHAR ucircumflex
ENCODING 251
SWIDTH 584 0
DWIDTH 11 0
BBX 10 17 1 0
BITMAP
006800
01FF00
07EFD0
0B87D0
020080
000000
000080
1001D0
B401E0
B802F0
F803E0
F80BD0
F42F80
F9FF40
BFFD00
7FF400
2F8000
ENDCHAR
STARTCHAR udieresis
ENCODING 252
SWIDTH 584 0
DWIDTH 11 0
BBX 10 15 1 0
BITMAP
0B83D0
0BC3E0
064180
000000
000080
1001D0
B401E0
B802F0
F803E0
F80BD0
F42F80
F9FF40
BFFD00
7FF400
2F8000
ENDCHAR
STARTCHAR yacute
ENCODING 253
SWIDTH 400 0
DWIDTH 7 0
BBX 9 19 1 -1
BITMAP
000100
000B40
002F80
00BE00
01F800
01D000
000000
901900
F47F00
F8FE00
BAF800
7FE000
3FC000
2F8000
3F0000
BD0000
F80000
F40000
500000
ENDCHAR
STARTCHAR thorn
ENCODING 254
SWIDTH 579 0
DWIDTH 10 0
BBX 11 11 0 0
BITMAP
0A0000
1F0000
2FFE40
2FFFF0
3F06F4
7E0BF4
7EBFE0
7FFE40
7F9000
7D0000
3C0000
ENDCHAR
STARTCHAR ydieresis
ENCODING 255
SWIDTH 400 0
DWIDTH 7 0
BBX 9 17 1 -1
BITMAP
1F0B80
2F4BC0
190640
000000
000000
901900
F47F00
F8FE00
BAF800
7FE000
3FC000
2F8000
3F0000
BD0000
F80000
F40000
500000
ENDCHAR
STARTCHAR dotlessi
ENCODING 305
SWIDTH 320 0
DWIDTH 6 0
BBX 4 12 1 -1
BITMAP
08
2D
3E
3E
7D
BC
B8
F8
F8
B8
78
10
ENDCHAR
STARTCHAR Lslash
ENCODING 321
SWIDTH 632 0
DWIDTH 11 0
BBX 13 13 -2 0
BITMAP
00390000
007F0000
00BF0000
00FD0000
01FF8000
0BFFD000
BFF90000
7FF00000
1BE00000
0BE6A800
0BFFFF80
07FFFFC0
02FE5640
ENDCHAR
STARTCHAR lslash
ENCODING 322
SWIDTH 533 0
DWIDTH 10 0
BBX 11 12 -2 -1
BITMAP
006400
00BC00
00FC00
01F800
02FF40
6FFE00
BFD000
2BC000
0BEBE4
0BFFFC
07FEA8
004000
ENDCHAR
STARTCHAR OE
ENCODING 338
SWIDTH 1212 0
DWIDTH 22 0
BBX 23 14 0 0
BITMAP
000040000000
0006E0006AD0
001FF86FFFF4
007FF4FFFFD0
01FFF8FFE500
07FEBDBE0000
1FE03EBFFD00
3F802FFFFF40
7F000FFFF900
BD001FF40000
BD05FFF01600
BFFFFFFFFFC0
7FFFFBFFFF80
1FFE81FFF900
ENDCHAR
STARTCHAR oe
ENCODING 339
SWIDTH 1010 0
DWIDTH 18 0
BBX 19 12 0 -1
BITMAP
000B0005A0
007F86FFF8
01FF8FFFE0
07FFCFE400
1FD2EBEA00
3F41FFFF80
7D00BFFE40
B801FF0000
B96FFE5AD0
BFFFFFFFE0
2FFE5FFE80
0040014000
ENDCHAR
STARTCHAR Scaron
ENCODING 352
SWIDTH 576 0
DWIDTH 10 0
BBX 13 20 0 -1
BITMAP
00601800
00F8BC00
00BEF800
001FE000
00064000
00000000
001BFD00
06FFFF00
3FFFFF40
BFE40000
BFF40000
7FFE0000
05BF4000
00078000
000BC000
007F8000
2BFF0000
3FF80000
2F900000
04000000
ENDCHAR
STARTCHAR scaron
ENCODING 353
SWIDTH 463 0
DWIDTH 8 0
BBX 11 18 0 -1
BITMAP
060180
0F87D0
07EF80
01FE00
006400
000000
005A90
07FFF0
7FFBF4
BF8000
BFF400
1AF800
002D00
003D00
06FC00
3FF400
3F8000
140000
ENDCHAR
STARTCHAR Ydieresis
ENCODING 376
SWIDTH 493 0
DWIDTH 9 0
BBX 10 19 1 -1
BITMAP
0B83D0
0BC3E0
064180
000000
000000
E407D0
FC1FE0
BC3FD0
BDBF40
7FFD00
7FF800
2FF000
1FD000
2F8000
7F4000
BE0000
FC0000
F80000
200000
ENDCHAR
STARTCHAR Zcaron
ENCODING 381
SWIDTH 664 0
DWIDTH 12 0
BBX 13 20 0 -1
BITMAP
00090240
001F4F80
000FEF40
0002FD00
0000A000
00000000
06FAA900
07FFFF40
03FFFF40
0042FE00
000FF800
007FD000
02FF4000
1FF90000
BFE00000
FF41B400
FFAFFD00
FFFFF400
7FFE4000
1A500000
ENDCHAR
STARTCHAR zcaron
ENCODING 382
SWIDTH 547 0
DWIDTH 10 0
BBX 11 19 0 -1
BITMAP
006018
00F8BC
00BEF8
001FE0
000640
000000
000000
06AA90
0BFFF4
07EFF4
001FD0
00BF40
07FD00
2FE000
BF4000
FD6B80
FFFFC0
BFF900
1A4000
ENDCHAR
STARTCHAR circumflex
ENCODING 710
SWIDTH 754 0
DWIDTH 14 0
BBX 8 5 4 9
BITMAP
0680
1FF0
7EFD
B83D
2008
ENDCHAR
STARTCHAR caron
ENCODING 711
SWIDTH 754 0
DWIDTH 14 0
BBX 8 5 4 9
BITMAP
6018
BC7D
7EFC
1FE0
0280
ENDCHAR
STARTCHAR breve
ENCODING 728
SWIDTH 754 0
DWIDTH 14 0
BBX 8 4 4 10
BITMAP
6008
B97D
7FFD
1BE0
ENDCHAR
STARTCHAR dotaccent
ENCODING 729
SWIDTH 754 0
DWIDTH 14 0
BBX 4 3 6 10
BITMAP
78
BD
64
ENDCHAR
STARTCHAR ring
ENCODING 730
SWIDTH 754 0
DWIDTH 14 0
BBX 6 6 5 9
BITMAP
0200
0B80
3FC0
BAD0
BFD0
7E40
ENDCHAR
STARTCHAR ogonek
ENCODING 731
SWIDTH 754 0
DWIDTH 14 0
BBX 7 6 5 -5
BITMAP
2000
7000
B400
7950
2FFC
06A4
ENDCHAR
STARTCHAR tilde
ENCODING 732
SWIDTH 754 0
DWIDTH 14 0
BBX 9 4 3 10
BITMAP
054140
1FE7C0
3EFF80
78BE00
ENDCHAR
STARTCHAR hungarumlaut
ENCODING 733
SWIDTH 754 0
DWIDTH 14 0
BBX 10 6 3 8
BITMAP
010040
0782D0
1FCBE0
7F6F80
FD7E00
A07400
ENDCHAR
STARTCHAR endash
ENCODING 8211
SWIDTH 588 0
DWIDTH 11 0
BBX 10 3 0 3
BITMAP
6FFF80
BFFFD0
295500
ENDCHAR
STARTCHAR emdash
ENCODING 8212
SWIDTH 878 0
DWIDTH 16 0
BBX 15 4 0 3
BITMAP
00555000
BFFFFFE0
7FFFFFF8
19555400
ENDCHAR
STARTCHAR quoteleft
ENCODING 8216
SWIDTH 203 0
DWIDTH 4 0
BBX 5 6 1 8
BITMAP
0900
2F80
3F40
7E00
7D00
2800
ENDCHAR
STARTCHAR quoteright
ENCODING 8217
SWIDTH 199 0
DWIDTH 4 0
BBX 5 6 1 8
BITMAP
0900
1F40
2F40
3F00
BE00
7800
ENDCHAR
STARTCHAR quotesinglbase
ENCODING 8218
SWIDTH 204 0
DWIDTH 4 0
BBX 4 6 -2 -3
BITMAP
04
2F
2F
3F
BD
B8
ENDCHAR
STARTCHAR quotedblleft
ENCODING 8220
SWIDTH 410 0
DWIDTH 7 0
BBX 9 6 1 8
BITMAP
090900
2F6F40
3F7F00
7DBD00
7CBC00
7C6800
ENDCHAR
STARTCHAR quotedblright
ENCODING 8221
SWIDTH 425 0
DWIDTH 8 0
BBX 9 6 1 8
BITMAP
090500
1F4F40
2F6F40
3F7F00
BEBD00
787400
ENDCHAR
STARTCHAR quotedblbase
ENCODING 8222
SWIDTH 430 0
DWIDTH 8 0
BBX 9 6 -2 -3
BITMAP
040400
2F1F40
2F2F40
3F7E00
BDFD00
B8B400
ENDCHAR
STARTCHAR bullet
ENCODING 8226
SWIDTH 299 0
DWIDTH 5 0
BBX 5 5 0 3
BITMAP
0400
3E00
7F40
7F00
2500
ENDCHAR
STARTCHAR ellipsis
ENCODING 8230
SWIDTH 768 0
DWIDTH 14 0
BBX 14 4 -1 -1
BITMAP
290A0240
7E2F4BD0
7D1F47C0
14050100
ENDCHAR
STARTCHAR perthousand
ENCODING 8240
SWIDTH 889 0
DWIDTH 16 0
BBX 16 13 0 0
BITMAP
01800500
07D01E00
1FE07D00
3DF1F800
3FF7E000
1A9F8000
007E0000
01F8901C
07D7E0BD
1F4FF5FE
3E2EBBDF
7D2FF7FF
380A41A4
ENDCHAR
STARTCHAR guilsinglleft
ENCODING 8249
SWIDTH 322 0
DWIDTH 6 0
BBX 6 8 0 0
BITMAP
0080
03D0
1F80
BE00
F800
BD00
2F00
0B40
ENDCHAR
STARTCHAR guilsinglright
ENCODING 8250
SWIDTH 341 0
DWIDTH 6 0
BBX 6 9 -1 -1
BITMAP
1400
1E00
0FD0
02F0
02F0
1FD0
7E00
7400
1000
ENDCHAR
STARTCHAR fraction
ENCODING 8260
SWIDTH 541 0
DWIDTH 10 0
BBX 10 14 0 -1
BITMAP
0000D0
0002E0
000BD0
001F80
003E00
00F800
02F000
0BD000
1F4000
7E0000
BC0000
B80000
B40000
100000
ENDCHAR
STARTCHAR Euro
ENCODING 8364
SWIDTH 565 0
DWIDTH 10 0
BBX 11 11 -1 0
BITMAP
0001A0
000BF8
007FF4
01FF90
07F800
2BFE40
7FFFD0
2F9540
07FE90
01FFF0
001A90
ENDCHAR
STARTCHAR Delta
ENCODING 8710
SWIDTH 403 0
DWIDTH 7 0
BBX 11 12 -1 -1
BITMAP
01AAA0
07FFF8
03BE50
003D00
007C00
00B800
00F400
01F000
07E400
BFFD00
7FA800
100000
ENDCHAR
STARTCHAR minus
ENCODING 8722
SWIDTH 548 0
DWIDTH 10 0
BBX 9 3 0 3
BITMAP
AFFF40
FFFFC0
655500
ENDCHAR
STARTCHAR approxequal
ENCODING 8776
SWIDTH 323 0
DWIDTH 6 0
BBX 5 13 0 0
BITMAP
0740
0B80
0FC0
1FC0
1FC0
2F80
3F40
3F00
7F00
7E00
3F00
3F00
2E00
ENDCHAR
STARTCHAR fi
ENCODING 64257
SWIDTH 810 0
DWIDTH 15 0
BBX 15 12 -1 -1
BITMAP
0006B860
06FFFDB4
0FFE55F4
0FE001F8
03D002F4
1BEA42F0
7FFFC3E0
3FFA43E0
2F0003D0
2E0003E0
1D0002D0
00000040
ENDCHAR
STARTCHAR fl
ENCODING 64258
SWIDTH 1012 0
DWIDTH 18 0
BBX 19 12 -1 -1
BITMAP
0006B8A000
06FFFEF800
0FFE55F800
0FE002F000
03D003E000
1BEA47D000
7FFFCBC000
3FFA4F8000
2F000FAFE0
2E000FFFF8
1D0007FAA4
0000014000
ENDCHAR
STARTCHAR .notdef
ENCODING -1
SWIDTH 370 0
DWIDTH 7 0
BBX 1 1 0 0
BITMAP
00
ENDCHAR
ENDFONT
